<?xml version="1.0" standalone="no"?>
<!DOCTYPE svg PUBLIC "-//W3C//DTD SVG 20010904//EN"
 "http://www.w3.org/TR/2001/REC-SVG-20010904/DTD/svg10.dtd">
<svg version="1.0" xmlns="http://www.w3.org/2000/svg"
 width="1080.000000pt" height="1080.000000pt" viewBox="0 0 1080.000000 1080.000000"
 preserveAspectRatio="xMidYMid meet">

<g transform="translate(0.000000,1080.000000) scale(0.100000,-0.100000)"
fill="#000000" stroke="none">
<path d="M0 5400 l0 -5400 5400 0 5400 0 0 5400 0 5400 -5400 0 -5400 0 0
-5400z m5715 1857 c167 -31 315 -76 460 -139 83 -36 3024 -1707 3024 -1718 0
-3 -205 -122 -457 -265 -251 -143 -893 -509 -1425 -813 -1027 -586 -1091 -621
-1238 -677 -231 -89 -404 -119 -679 -119 -275 0 -448 30 -679 119 -147 56
-212 91 -1248 683 -538 307 -1179 673 -1425 813 -246 140 -447 256 -447 259 0
11 2941 1682 3024 1718 50 21 126 51 170 65 140 46 228 65 420 91 67 9 424 -3
500 -17z"/>
<path d="M5245 6974 c-164 -18 -369 -74 -515 -140 -78 -36 -2519 -1425 -2519
-1434 0 -3 210 -125 467 -271 257 -147 791 -452 1187 -679 802 -459 870 -496
1017 -545 196 -65 288 -79 518 -79 230 0 322 14 518 79 147 49 214 86 1017
545 396 227 930 532 1187 679 257 146 467 268 467 271 0 9 -2441 1398 -2519
1434 -201 91 -399 136 -630 141 -85 2 -173 1 -195 -1z m419 -100 c114 -19 299
-80 402 -132 282 -142 534 -394 676 -676 51 -102 112 -286 134 -407 21 -116
24 -381 5 -489 -78 -445 -331 -821 -706 -1050 -468 -286 -1082 -286 -1550 0
-376 229 -629 606 -706 1050 -19 108 -16 373 5 490 55 305 195 569 420 796
258 258 573 405 936 438 79 7 292 -4 384 -20z"/>
<path d="M5344 6130 c-122 -25 -223 -118 -255 -234 -19 -70 37 -146 110 -146
46 0 76 18 102 62 54 92 105 113 154 63 23 -22 25 -32 25 -119 l0 -95 -229 -3
-229 -3 -39 -31 c-21 -16 -48 -50 -61 -75 -23 -44 -23 -46 -20 -399 l3 -355
24 -36 c29 -42 74 -76 122 -89 44 -13 654 -13 698 0 48 13 93 47 122 89 l24
36 3 350 c3 304 1 355 -13 392 -20 51 -85 110 -130 119 l-32 6 -6 111 c-7 147
-25 196 -96 268 -76 75 -180 109 -277 89z"/>
</g>
</svg>
