
<svg xmlns="http://www.w3.org/2000/svg" version="1.1" xmlns:xlink="http://www.w3.org/1999/xlink" preserveAspectRatio="none" x="0px" y="0px" width="2200px" height="270px" viewBox="0 0 2200 270">
<defs>
<g id="Layer0_0_FILL">
<path fill="#F5F3FF" stroke="none" d="
M 192.6 39.3
Q 182.45 31.8 168.35 28.1 154.15 24.3 135.8 24.3
L 30.35 24.3
Q 27 24.3 25.35 25.9 23.65 27.5 23.75 30.9
L 23.75 238.95
Q 23.65 242.3 25.35 243.95 27 245.55 30.35 245.55
L 144.9 245.55
Q 147.15 245.55 149.4 245.55 164.9 245.05 177.35 241.7 191.55 237.95 201.7 230.55 211.85 223.05 217 212.1 221.8 201.6 222.1 188.15
L 222.1 186.35
Q 222.1 186.1 222.1 185.85 222 170.4 216.9 158.95 215.5 155.9 213.75 153.05 205.35 139.8 188.5 132.8 199.35 126.55 205.5 116.75 206.25 115.5 207 114.15 213.15 102.55 213.15 86.85 213.15 70.55 208 58.75 202.9 46.9 192.6 39.3
M 168.1 178.75
Q 167.95 187.95 162.25 192.7 156.35 197.4 144.9 197.4
L 77.8 197.4 77.8 158.95 146.35 158.95
Q 156.75 159.25 162.25 163.9 167.95 168.9 168.1 178.75
M 153.15 77.3
Q 159 82.3 159 92.25 159 101.55 153.15 106.05 147.35 110.8 135.8 110.8
L 77.8 110.8 77.8 72.25 135.8 72.25
Q 147.35 72.25 153.15 77.3
M 438.3 25.9
Q 436.85 24.4 433.8 24.3
L 391.95 24.3
Q 389.05 24.4 387.4 25.9 385.75 27.5 385.75 30.9
L 385.75 158.35
Q 385.95 167.6 383.25 174.8 380.8 181.85 375.65 186.85 365.2 196.8 345.85 196.8 336.15 196.8 328.05 194.35 320.15 191.8 314 186.85 307.8 181.85 304.75 174.8 301.6 167.6 301.6 158.35
L 301.6 30.9
Q 301.6 27.5 300 25.9 298.55 24.4 295.45 24.3
L 253.65 24.3
Q 250.6 24.4 249.1 25.9 247.45 27.5 247.45 30.9
L 247.45 161.2
Q 247.85 179.9 253.65 194.9 259.8 210.9 272.1 222.35 284.6 233.8 302.8 239.7 318.85 244.8 339.35 245.5 342.25 245.55 345.25 245.55
L 345.85 245.55
Q 348.9 245.55 351.9 245.5 372.6 244.8 388.3 239.7 406.15 233.8 417.3 222.05 428.65 210.45 434.35 194.65 439.6 179.75 439.95 161.15
L 439.95 30.9
Q 439.95 27.5 438.3 25.9
M 519.25 30.9
Q 519.25 27.5 517.65 25.9 516.05 24.3 512.65 24.3
L 471.4 24.3
Q 468.35 24.4 466.85 25.9 465.1 27.5 465.25 30.9
L 465.25 238.95
Q 465.25 239.5 465.25 240 465.4 242.55 466.85 243.95 468.35 245.45 471.4 245.55
L 513.1 245.55
Q 516.15 245.45 517.65 243.95 519.15 242.4 519.25 239.35
L 519.25 30.9
M 725.75 243.95
Q 727.25 242.4 727.35 239.35
L 727.35 204
Q 727.35 200.6 725.75 199 724.1 197.4 720.75 197.4
L 598.6 197.4 598.6 30.9
Q 598.6 27.5 596.95 25.9 595.35 24.3 592 24.3
L 551.15 24.3
Q 547.8 24.3 546.15 25.9 544.4 27.5 544.55 30.9
L 544.55 238.95
Q 544.55 239.5 544.55 240 544.7 242.55 546.15 243.95 547.7 245.45 550.75 245.55
L 721.15 245.55
Q 724.2 245.45 725.75 243.95
M 947.85 87.85
Q 941.45 67.3 928.85 53.1 916.2 38.7 897.15 31.5 878.2 24.3 852.65 24.3
L 759.25 24.3
Q 755.9 24.3 754.25 25.9 752.55 27.5 752.65 30.9
L 752.65 239.7
Q 752.75 242.5 754.25 243.95 755.8 245.45 758.85 245.55
L 852.65 245.55
Q 877.75 245.55 896.7 238.45 915.6 231.45 928.55 217.25 941.35 203.15 947.65 182.55 952.25 168.1 953.6 150.4 953.9 146.3 954.05 142.05 954.1 138.75 954.1 135.45
L 954.1 130.75
Q 954.05 129.3 954 127.9 953.8 122.15 953.35 116.75 951.85 101 947.85 87.85
M 870.85 76
Q 878.8 79.65 884.95 86.85 890.95 94.15 893.9 105.6 895.35 110.8 896.1 116.75 897 124.05 897 132.5 897 132.65 897 132.8 897 148.2 894.2 160.1 891.45 172 885.85 180.65 880.4 189.05 872 193.15 863.8 197.4 852.65 197.4
L 806.7 197.4 806.7 72.25 852.65 72.25
Q 862.75 72.25 870.85 76
M 1171.9 31.05
Q 1171.6 27.65 1169.95 26.05 1168.35 24.45 1165.3 24.45
L 1089.25 24.45
Q 1062.5 24.45 1042.2 32.05 1021.8 39.65 1007.75 55.1 993.5 70.25 986.45 95.8 983.75 105.65 982.1 116.9 981 124.6 980.3 132.95 980.25 133.9 980.2 134.9 979.4 145.55 979.4 157.3
L 979.4 239.1
Q 979.65 242.45 981.3 244.1 982.9 245.7 986 245.7
L 1027 245.7
Q 1030.35 245.6 1031.95 243.8 1033.6 242.15 1033.6 239.1
L 1033.6 157
Q 1033.6 145.05 1034.55 134.9 1034.6 133.9 1034.7 132.95 1035.55 124.55 1037.1 117.35 1037.2 117.1 1037.25 116.9 1040.9 100.8 1047.95 91.35 1055.15 81.95 1065.6 77.3 1075.85 72.4 1089.25 72.4
L 1117.75 72.4 1117.75 135.05 1171.9 109.8 1171.9 31.05 Z"/>

<path fill="#6E5AC4" stroke="none" d="
M 1308.35 26.05
Q 1306.75 24.45 1303.6 24.45
L 1262.65 24.45
Q 1259.3 24.55 1257.65 26.35 1256.05 27.95 1256.05 31.05
L 1256.05 113.15
Q 1256.05 115.05 1256.05 116.9 1255.9 125.4 1255.3 132.95 1255.2 134.1 1255.1 135.2 1254.25 144.8 1252.5 152.8 1248.85 169.25 1241.65 178.75 1234.45 188.2 1224 192.85 1213.75 197.7 1200.4 197.7
L 1171.9 197.7 1171.9 135.1 1117.75 160.35 1117.75 239.1
Q 1117.85 240.7 1118.35 242 1118.8 243.25 1119.65 244.1 1121.2 245.65 1124.1 245.7
L 1203.75 245.7
Q 1228.4 245.2 1247.4 238.1 1267.8 230.45 1281.9 215.05 1296.1 199.9 1303.2 174.3 1307.9 157.05 1309.4 135.2 1309.5 134.1 1309.6 132.95 1309.7 131.3 1309.8 129.65 1310.05 125.4 1310.2 121.05
L 1310.2 116.9
Q 1310.2 114.9 1310.2 112.85
L 1310.2 31.05
Q 1309.95 27.65 1308.35 26.05
M 1515.05 24.45
Q 1514.85 24.45 1514.6 24.45
L 1342.5 24.45
Q 1342.25 24.45 1342.05 24.45 1338.7 24.45 1337.05 26.05 1335.3 27.7 1335.45 31.15
L 1335.45 239.1
Q 1335.4 239.9 1335.5 240.65 1335.75 242.85 1337.05 244.05 1338.6 245.6 1341.65 245.7 1342.25 245.7 1342.5 245.7
L 1514.6 245.7
Q 1514.85 245.7 1515.05 245.7 1518.4 245.7 1520 244.05 1521.65 242.4 1521.65 238.95
L 1521.65 203.05
Q 1521.55 199.9 1520 198.4 1518.4 196.8 1515.05 196.8
L 1389.9 196.8 1389.9 159.5 1515.05 159.5
Q 1518.4 159.5 1520 157.9 1521.55 156.4 1521.65 153.25
L 1521.65 117.35
Q 1521.65 113.9 1520 112.25 1518.4 110.65 1515.05 110.65 1514.85 110.65 1514.6 110.65
L 1389.9 110.65 1389.9 73.3 1515.05 73.3
Q 1518.4 73.3 1520 71.7 1521.55 70.2 1521.65 67.05
L 1521.65 31.15
Q 1521.65 27.7 1520 26.05 1518.4 24.45 1515.05 24.45
M 1736.4 87
Q 1736.4 70.7 1731.25 58.9 1726.15 47.05 1715.85 39.45 1705.7 31.95 1691.6 28.25 1678.7 24.8 1662.45 24.5
L 1553.6 24.45
Q 1550.25 24.45 1548.65 26.05 1546.9 27.65 1547 31.05
L 1547 239.1
Q 1547 239.45 1547 239.8 1547.1 242.65 1548.65 244.1 1550.15 245.6 1553.2 245.7
L 1594.85 245.7
Q 1597.9 245.6 1599.45 244.1 1600.95 242.55 1601.05 239.5
L 1601.05 159.1 1656.95 159.1
Q 1683.65 159.7 1688.25 192.25 1689.75 202.95 1690.1 219.55 1690.3 225.15 1690.3 231.3 1690.3 231.6 1690.3 231.9
L 1690.3 239.4
Q 1690.4 242.25 1691.9 243.8 1693.55 245.6 1696.95 245.7
L 1738.3 245.7
Q 1741.1 245.65 1742.6 244.1 1744.15 242.65 1744.45 239.8
L 1744.55 233.7
Q 1744.5 211.8 1742.7 189.5 1741.05 168.95 1734.55 157.25 1728.1 145.45 1723.05 140.7 1717.25 135.2 1711.75 132.95 1722.65 126.7 1728.75 116.9 1729.5 115.65 1730.25 114.3 1736.4 102.7 1736.4 87
M 1674.7 76.15
Q 1675.6 76.75 1676.4 77.45 1682.25 82.45 1682.25 92.4 1682.25 101.7 1676.4 106.2 1670.6 110.95 1659.05 110.95
L 1601.05 110.95 1601.05 72.4 1660.2 72.4
Q 1660.6 72.4 1661.05 72.5 1669.25 72.8 1674.35 75.9 1674.45 76 1674.7 76.15
M 1957.55 26.05
Q 1956.05 24.55 1953 24.45
L 1853.2 24.45
Q 1832.6 24.45 1817.1 28.7 1801.5 32.95 1791.25 41.45 1780.35 50.1 1775.1 62.45 1769.75 74.95 1769.75 91.05 1769.75 107.4 1774.9 120.05 1777.85 127.05 1782.25 132.95 1785.65 137.45 1789.9 141.3 1800.35 150.1 1816 154.65 1831.7 159.1 1853.2 159.1
L 1881.95 159.1
Q 1908.05 159.1 1908.05 178.9 1908.05 188.1 1901.65 192.85 1895.05 197.55 1881.95 197.55
L 1776.4 197.55
Q 1773 197.55 1771.35 199.15 1769.75 200.75 1769.75 204.15
L 1769.75 239.5
Q 1769.85 242.55 1771.35 244.1 1772.9 245.6 1776 245.7
L 1887 245.7
Q 1904.45 245.15 1918.1 241.45 1933.5 237.2 1943.95 228.55 1954.8 220.05 1960.05 207.55 1964.75 196.65 1965.2 182.65
L 1965.2 175.75
Q 1965.2 175.45 1965.2 175.15 1964.65 161.25 1960.2 150.1 1956.3 140.4 1949.45 132.95 1947.35 130.7 1945.05 128.7 1934.8 119.85 1919.1 115.5 1903.4 111.05 1881.95 110.95
L 1853.2 110.95
Q 1826.9 110.95 1826.9 91.05 1826.9 81.85 1833.5 77.15 1840 72.4 1853.2 72.4
L 1952.55 72.4
Q 1955.95 72.4 1957.55 70.8 1959.35 69.25 1959.15 65.8
L 1959.15 31.05
Q 1959.35 27.65 1957.55 26.05
M 2176.65 31.15
Q 2176.65 27.7 2175 26.05 2173.4 24.45 2170.05 24.45 2169.85 24.45 2169.6 24.45
L 1996.65 24.45
Q 1993.6 24.55 1992.05 26.05 1990.6 27.45 1990.45 30.1
L 1990.45 240.25
Q 1990.45 240.45 1990.5 240.65 1990.75 242.85 1992.05 244.05 1993.6 245.6 1996.65 245.7 1997.25 245.7 1997.5 245.7
L 2170.45 245.7
Q 2173.5 245.6 2175 244.05 2176.65 242.4 2176.65 238.95
L 2176.65 203.05
Q 2176.55 199.9 2175 198.4 2173.4 196.8 2170.05 196.8
L 2044.9 196.8 2044.9 159.5 2170.05 159.5
Q 2173.4 159.5 2175 157.9 2176.55 156.4 2176.65 153.25
L 2176.65 117.35
Q 2176.65 113.9 2175 112.25 2173.4 110.65 2170.05 110.65 2169.85 110.65 2169.6 110.65
L 2044.9 110.65 2044.9 73.3 2170.05 73.3
Q 2173.4 73.3 2175 71.7 2176.55 70.2 2176.65 67.05
L 2176.65 31.15 Z"/>
</g>
</defs>

<g transform="matrix( 1, 0, 0, 1, 0,0) ">
<use xlink:href="#Layer0_0_FILL"/>
</g>
</svg>
