
<svg xmlns="http://www.w3.org/2000/svg" version="1.1" xmlns:xlink="http://www.w3.org/1999/xlink" preserveAspectRatio="none" x="0px" y="0px" width="340px" height="230px" viewBox="0 0 340 230">
<defs>
<g id="Layer0_0_FILL">
<path fill="#23202F" stroke="none" d="
M 195.15 6
Q 193.55 4.4 190.5 4.4
L 114.45 4.4
Q 87.7 4.4 67.4 12 47 19.6 32.95 35.05 18.7 50.2 11.65 75.75 8.95 85.6 7.3 96.85 6.2 104.55 5.5 112.9 5.45 113.85 5.4 114.85 4.6 125.5 4.6 137.25
L 4.6 219.05
Q 4.85 222.4 6.5 224.05 8.1 225.65 11.2 225.65
L 52.2 225.65
Q 55.55 225.55 57.15 223.75 58.8 222.1 58.8 219.05
L 58.8 136.95
Q 58.8 125 59.75 114.85 59.8 113.85 59.9 112.9 60.75 104.5 62.3 97.3 62.4 97.05 62.45 96.85 66.1 80.75 73.15 71.3 80.35 61.9 90.8 57.25 101.05 52.35 114.45 52.35
L 142.95 52.35 142.95 115 197.1 89.75 197.1 11
Q 196.8 7.6 195.15 6 Z"/>

<path fill="#6E5AC4" stroke="none" d="
M 335.4 11
Q 335.15 7.6 333.55 6 331.95 4.4 328.8 4.4
L 287.85 4.4
Q 284.5 4.5 282.85 6.3 281.25 7.9 281.25 11
L 281.25 93.1
Q 281.25 95 281.25 96.85 281.1 105.35 280.5 112.9 280.4 114.05 280.3 115.15 279.45 124.75 277.7 132.75 274.05 149.2 266.85 158.7 259.65 168.15 249.2 172.8 238.95 177.65 225.6 177.65
L 197.1 177.65 197.1 115.05 142.95 140.3 142.95 219.05
Q 143.05 220.65 143.55 221.95 144 223.2 144.85 224.05 146.4 225.6 149.3 225.65
L 228.95 225.65
Q 253.6 225.15 272.6 218.05 293 210.4 307.1 195 321.3 179.85 328.4 154.25 333.1 137 334.6 115.15 334.7 114.05 334.8 112.9 334.9 111.25 335 109.6 335.25 105.35 335.4 101
L 335.4 96.85
Q 335.4 94.85 335.4 92.8
L 335.4 11 Z"/>
</g>
</defs>

<g transform="matrix( 1, 0, 0, 1, 0,0) ">
<use xlink:href="#Layer0_0_FILL"/>
</g>
</svg>
