<?xml version="1.0" standalone="no"?>
<!DOCTYPE svg PUBLIC "-//W3C//DTD SVG 20010904//EN"
 "http://www.w3.org/TR/2001/REC-SVG-20010904/DTD/svg10.dtd">
<svg version="1.0" xmlns="http://www.w3.org/2000/svg"
 width="955.000000pt" height="216.000000pt" viewBox="0 0 955.000000 216.000000"
 preserveAspectRatio="xMidYMid meet">

<g transform="translate(0.000000,216.000000) scale(0.100000,-0.100000)"
fill="#000000" stroke="none">
<path d="M0 1080 l0 -1080 4775 0 4775 0 0 1080 0 1080 -4775 0 -4775 0 0
-1080z m4580 814 c36 -8 106 -34 155 -59 163 -79 271 -187 351 -351 54 -111
74 -198 74 -330 0 -298 -165 -557 -436 -685 -111 -53 -196 -71 -329 -70 -419
1 -746 331 -747 756 -1 159 34 283 114 406 177 275 495 404 818 333z m1308
-51 c17 -43 69 -179 117 -303 47 -123 90 -230 94 -238 5 -9 57 101 143 300
l135 313 206 3 206 2 6 -32 c6 -37 31 -268 70 -638 14 -135 41 -380 59 -545
19 -165 32 -303 29 -307 -6 -12 -333 -10 -333 1 0 24 -101 919 -106 941 -5 24
-75 -127 -331 -725 -47 -110 -88 -203 -92 -207 -3 -4 -39 79 -80 185 -144 376
-284 732 -291 740 -8 9 -9 0 -70 -553 -23 -201 -43 -371 -45 -377 -3 -10 -47
-13 -171 -13 l-166 0 6 43 c9 61 59 518 111 1012 25 237 48 440 50 453 5 22 6
22 214 22 l209 0 30 -77z m1592 -688 l0 -765 -163 0 -164 0 -6 749 c-4 413 -4
757 -1 765 5 14 31 16 170 16 l164 0 0 -765z m-5761 1 c138 -414 251 -756 251
-760 0 -3 -78 -6 -174 -6 l-174 0 -42 125 -42 125 -323 0 -323 0 -10 -27 c-6
-16 -22 -64 -37 -108 -43 -127 -21 -115 -215 -115 -94 0 -170 4 -170 8 0 10
475 1444 491 1485 l11 27 253 0 253 0 251 -754z m1022 298 c178 -250 329 -463
336 -472 10 -14 12 82 13 456 l0 472 170 0 170 0 -2 -757 -3 -758 -170 0 -169
0 -143 200 c-376 528 -519 724 -525 725 -5 0 -8 -209 -8 -465 l0 -465 -165 0
-165 0 0 288 c0 158 -3 500 -7 760 l-6 472 175 0 175 0 324 -456z m5888 429
c16 -42 491 -1476 491 -1485 0 -4 -78 -8 -173 -8 l-172 0 -33 97 c-19 54 -38
110 -44 126 l-10 27 -323 0 -323 0 -42 -125 -42 -125 -174 0 c-96 0 -174 3
-174 6 0 4 113 346 251 760 l251 754 253 0 253 0 11 -27z"/>
<path d="M4335 1568 c-166 -23 -312 -165 -345 -336 -42 -213 84 -420 292 -483
293 -89 590 169 539 467 -41 235 -248 385 -486 352z"/>
<path d="M1187 1518 c-91 -265 -177 -523 -177 -530 0 -4 92 -8 205 -8 113 0
205 4 205 8 0 10 -199 595 -204 600 -2 2 -15 -30 -29 -70z"/>
<path d="M8360 1588 c0 -3 -45 -139 -100 -303 -56 -164 -99 -299 -97 -301 2
-3 96 -3 209 -2 l205 3 -103 299 c-91 263 -114 325 -114 304z"/>
</g>
</svg>
