
<svg xmlns="http://www.w3.org/2000/svg" version="1.1" xmlns:xlink="http://www.w3.org/1999/xlink" preserveAspectRatio="none" x="0px" y="0px" width="68px" height="216px" viewBox="0 0 68 216">
<defs>
<path id="Layer0_0_1_STROKES" stroke="#000000" stroke-width="5" stroke-linejoin="round" stroke-linecap="round" fill="none" d="
M 6.4 76
L 6.4 5.35
Q 48.9 16.25 56.8 71.6 64.7 126.9 62.8 158.9 60.9 190.9 59.05 195.05 57.15 199.2 55.3 201.6 53.4 204 48.8 207 44.2 209.95 31.5 210.65 18.75 211.35 9.8 202.65 8.55 201.45 7.5 200.2 7.35 200.1 7.25 199.95
L 6.65 191.15
Q 10.35 191.8 15.55 192.2 20.75 192.6 25.5 191.9 29.55 191.2 31.45 188.05 33.05 185.1 33.4 182.3 33.8 179.5 33.8 177.65 33.8 175.8 33.4 173 33.05 170.15 31.45 167.25 29.55 164.1 25.5 163.4 20.75 162.65 15.55 163.05 10.35 163.45 6.6 164.15
L 4.85 155.55 13.3 151.25
Q 16.5 113.6 6.4 76 Z"/>
</defs>

<g transform="matrix( 1, 0, 0, 1, 0,0) ">
<use xlink:href="#Layer0_0_1_STROKES"/>
</g>
</svg>
