
<svg xmlns="http://www.w3.org/2000/svg" version="1.1" xmlns:xlink="http://www.w3.org/1999/xlink" preserveAspectRatio="none" x="0px" y="0px" width="68px" height="216px" viewBox="0 0 68 216">
<defs>
<path id="Layer0_0_1_STROKES" stroke="#000000" stroke-width="5" stroke-linejoin="round" stroke-linecap="round" fill="none" d="
M 61.6 76
L 61.6 5.35
Q 19.1 16.25 11.2 71.6 3.3 126.9 5.2 158.9 7.1 190.9 8.95 195.05 10.85 199.2 12.7 201.6 14.6 204 19.2 207 23.8 209.95 36.5 210.65 49.25 211.35 58.2 202.65 59.45 201.45 60.5 200.2 60.65 200.1 60.75 199.95
L 61.35 191.15
Q 57.65 191.8 52.45 192.2 47.25 192.6 42.5 191.9 38.45 191.2 36.55 188.05 34.95 185.1 34.6 182.3 34.2 179.5 34.2 177.65 34.2 175.8 34.6 173 34.95 170.15 36.55 167.25 38.45 164.1 42.5 163.4 47.25 162.65 52.45 163.05 57.65 163.45 61.4 164.15
L 63.15 155.55 54.7 151.25
Q 51.5 113.6 61.6 76 Z"/>
</defs>

<g transform="matrix( 1, 0, 0, 1, 0,0) ">
<use xlink:href="#Layer0_0_1_STROKES"/>
</g>
</svg>
